<mxfile host="app.diagrams.net" modified="2022-04-22T04:13:56.483Z" agent="5.0 (Windows NT 10.0; Win64; x64) AppleWebKit/537.36 (KHTML, like Gecko) Chrome/100.0.4896.127 Safari/537.36 Edg/100.0.1185.44" etag="BXSpj3TFKAjnZTnnB9If" version="17.4.6" type="github">
  <diagram id="p8SwK3MLcbd8q6ZvAne0" name="Page-1">
    <mxGraphModel dx="1385" dy="578" grid="1" gridSize="10" guides="1" tooltips="1" connect="1" arrows="1" fold="1" page="1" pageScale="1" pageWidth="850" pageHeight="1100" math="0" shadow="0">
      <root>
        <mxCell id="0" />
        <mxCell id="1" parent="0" />
        <mxCell id="qBiedEyCLdeu1n9fLMtX-1" value="Main Menu" style="rounded=0;whiteSpace=wrap;html=1;" vertex="1" parent="1">
          <mxGeometry x="-20" y="230" width="120" height="60" as="geometry" />
        </mxCell>
        <mxCell id="qBiedEyCLdeu1n9fLMtX-2" value="Play Game" style="rounded=0;whiteSpace=wrap;html=1;" vertex="1" parent="1">
          <mxGeometry x="360" y="230" width="120" height="60" as="geometry" />
        </mxCell>
        <mxCell id="qBiedEyCLdeu1n9fLMtX-3" value="New Game" style="shape=flexArrow;endArrow=classic;html=1;rounded=0;exitX=1;exitY=0.5;exitDx=0;exitDy=0;entryX=0;entryY=0.5;entryDx=0;entryDy=0;" edge="1" parent="1" source="qBiedEyCLdeu1n9fLMtX-1" target="qBiedEyCLdeu1n9fLMtX-2">
          <mxGeometry width="50" height="50" relative="1" as="geometry">
            <mxPoint x="310" y="280" as="sourcePoint" />
            <mxPoint x="360" y="230" as="targetPoint" />
          </mxGeometry>
        </mxCell>
        <mxCell id="qBiedEyCLdeu1n9fLMtX-4" value="Playing Field" style="rounded=0;whiteSpace=wrap;html=1;" vertex="1" parent="1">
          <mxGeometry x="360" y="350" width="120" height="60" as="geometry" />
        </mxCell>
        <mxCell id="qBiedEyCLdeu1n9fLMtX-5" value="" style="endArrow=classic;html=1;rounded=0;entryX=0.5;entryY=0;entryDx=0;entryDy=0;" edge="1" parent="1" source="qBiedEyCLdeu1n9fLMtX-2" target="qBiedEyCLdeu1n9fLMtX-4">
          <mxGeometry width="50" height="50" relative="1" as="geometry">
            <mxPoint x="360" y="280" as="sourcePoint" />
            <mxPoint x="410" y="230" as="targetPoint" />
          </mxGeometry>
        </mxCell>
        <mxCell id="qBiedEyCLdeu1n9fLMtX-6" value="Pass" style="rounded=0;whiteSpace=wrap;html=1;" vertex="1" parent="1">
          <mxGeometry x="440" y="460" width="90" height="20" as="geometry" />
        </mxCell>
        <mxCell id="qBiedEyCLdeu1n9fLMtX-7" value="Increase Socre" style="rounded=0;whiteSpace=wrap;html=1;" vertex="1" parent="1">
          <mxGeometry x="425" y="530" width="120" height="60" as="geometry" />
        </mxCell>
        <mxCell id="qBiedEyCLdeu1n9fLMtX-8" value="" style="endArrow=none;html=1;rounded=0;entryX=0.75;entryY=1;entryDx=0;entryDy=0;exitX=0.122;exitY=0.1;exitDx=0;exitDy=0;exitPerimeter=0;" edge="1" parent="1" source="qBiedEyCLdeu1n9fLMtX-6" target="qBiedEyCLdeu1n9fLMtX-4">
          <mxGeometry width="50" height="50" relative="1" as="geometry">
            <mxPoint x="360" y="430" as="sourcePoint" />
            <mxPoint x="410" y="380" as="targetPoint" />
          </mxGeometry>
        </mxCell>
        <mxCell id="qBiedEyCLdeu1n9fLMtX-9" value="Impact" style="rounded=0;whiteSpace=wrap;html=1;" vertex="1" parent="1">
          <mxGeometry x="300" y="460" width="90" height="20" as="geometry" />
        </mxCell>
        <mxCell id="qBiedEyCLdeu1n9fLMtX-10" value="Increase Socre" style="rounded=0;whiteSpace=wrap;html=1;" vertex="1" parent="1">
          <mxGeometry x="233" y="530" width="120" height="60" as="geometry" />
        </mxCell>
        <mxCell id="qBiedEyCLdeu1n9fLMtX-11" value="" style="endArrow=none;html=1;rounded=0;entryX=0.175;entryY=0.983;entryDx=0;entryDy=0;entryPerimeter=0;" edge="1" parent="1" target="qBiedEyCLdeu1n9fLMtX-4">
          <mxGeometry width="50" height="50" relative="1" as="geometry">
            <mxPoint x="381" y="460" as="sourcePoint" />
            <mxPoint x="410" y="460" as="targetPoint" />
          </mxGeometry>
        </mxCell>
        <mxCell id="qBiedEyCLdeu1n9fLMtX-12" value="" style="endArrow=classic;html=1;rounded=0;entryX=0.75;entryY=0;entryDx=0;entryDy=0;exitX=0.25;exitY=1;exitDx=0;exitDy=0;" edge="1" parent="1" source="qBiedEyCLdeu1n9fLMtX-9" target="qBiedEyCLdeu1n9fLMtX-10">
          <mxGeometry width="50" height="50" relative="1" as="geometry">
            <mxPoint x="360" y="510" as="sourcePoint" />
            <mxPoint x="410" y="460" as="targetPoint" />
          </mxGeometry>
        </mxCell>
        <mxCell id="qBiedEyCLdeu1n9fLMtX-13" value="" style="endArrow=classic;html=1;rounded=0;entryX=0.25;entryY=0;entryDx=0;entryDy=0;exitX=0.167;exitY=1.2;exitDx=0;exitDy=0;exitPerimeter=0;" edge="1" parent="1" source="qBiedEyCLdeu1n9fLMtX-6" target="qBiedEyCLdeu1n9fLMtX-7">
          <mxGeometry width="50" height="50" relative="1" as="geometry">
            <mxPoint x="360" y="510" as="sourcePoint" />
            <mxPoint x="410" y="460" as="targetPoint" />
          </mxGeometry>
        </mxCell>
        <mxCell id="qBiedEyCLdeu1n9fLMtX-14" value="in-game Menu" style="rounded=0;whiteSpace=wrap;html=1;" vertex="1" parent="1">
          <mxGeometry x="150" y="350" width="120" height="60" as="geometry" />
        </mxCell>
        <mxCell id="qBiedEyCLdeu1n9fLMtX-18" value="Restart Game" style="endArrow=classic;html=1;rounded=0;startSize=0;endSize=6;sourcePerimeterSpacing=-2;strokeColor=default;strokeWidth=1;entryX=1;entryY=0.25;entryDx=0;entryDy=0;exitX=0;exitY=0.25;exitDx=0;exitDy=0;" edge="1" parent="1" source="qBiedEyCLdeu1n9fLMtX-4" target="qBiedEyCLdeu1n9fLMtX-14">
          <mxGeometry width="50" height="50" relative="1" as="geometry">
            <mxPoint x="580" y="530" as="sourcePoint" />
            <mxPoint x="630" y="480" as="targetPoint" />
          </mxGeometry>
        </mxCell>
        <mxCell id="qBiedEyCLdeu1n9fLMtX-19" value="Resume Game" style="endArrow=classic;html=1;rounded=0;startSize=0;endSize=6;sourcePerimeterSpacing=-2;strokeColor=default;strokeWidth=1;entryX=0;entryY=0.75;entryDx=0;entryDy=0;exitX=1;exitY=0.75;exitDx=0;exitDy=0;" edge="1" parent="1" source="qBiedEyCLdeu1n9fLMtX-14" target="qBiedEyCLdeu1n9fLMtX-4">
          <mxGeometry width="50" height="50" relative="1" as="geometry">
            <mxPoint x="340" y="510" as="sourcePoint" />
            <mxPoint x="390" y="460" as="targetPoint" />
          </mxGeometry>
        </mxCell>
        <mxCell id="qBiedEyCLdeu1n9fLMtX-21" value="Exit Game" style="rounded=0;whiteSpace=wrap;html=1;" vertex="1" parent="1">
          <mxGeometry x="10" y="330" width="100" height="30" as="geometry" />
        </mxCell>
        <mxCell id="qBiedEyCLdeu1n9fLMtX-22" value="" style="endArrow=classic;html=1;rounded=0;startSize=0;endSize=6;sourcePerimeterSpacing=-2;strokeColor=default;strokeWidth=1;entryX=0.5;entryY=1;entryDx=0;entryDy=0;" edge="1" parent="1" source="qBiedEyCLdeu1n9fLMtX-21" target="qBiedEyCLdeu1n9fLMtX-1">
          <mxGeometry width="50" height="50" relative="1" as="geometry">
            <mxPoint x="230" y="420" as="sourcePoint" />
            <mxPoint x="280" y="370" as="targetPoint" />
          </mxGeometry>
        </mxCell>
        <mxCell id="qBiedEyCLdeu1n9fLMtX-23" value="" style="endArrow=none;html=1;rounded=0;startSize=0;endSize=6;sourcePerimeterSpacing=-2;strokeColor=default;strokeWidth=1;exitX=0.5;exitY=1;exitDx=0;exitDy=0;entryX=0;entryY=0.75;entryDx=0;entryDy=0;" edge="1" parent="1" source="qBiedEyCLdeu1n9fLMtX-21" target="qBiedEyCLdeu1n9fLMtX-14">
          <mxGeometry width="50" height="50" relative="1" as="geometry">
            <mxPoint x="230" y="420" as="sourcePoint" />
            <mxPoint x="280" y="370" as="targetPoint" />
          </mxGeometry>
        </mxCell>
      </root>
    </mxGraphModel>
  </diagram>
</mxfile>
